<svg width="64" height="48" viewBox="0 0 64 48" fill="none" xmlns="http://www.w3.org/2000/svg">
<path d="M18.3963 11.7946L19.2498 10.9411L27.3295 2.86108C27.8694 2.32092 27.8693 1.44568 27.3296 0.905985L27.3295 0.905897C26.7899 0.365968 25.9148 0.365842 25.3746 0.905985L14.0806 12.2C14.0806 12.2 14.0805 12.2001 14.0805 12.2001C13.5407 12.7403 13.5408 13.6154 14.0805 14.1551L25.3745 25.4491C25.3746 25.4492 25.3746 25.4492 25.3746 25.4492C25.9148 25.989 26.7899 25.9889 27.3295 25.4493L18.3963 11.7946ZM18.3963 11.7946H19.6034H46.1167C55.7184 11.7946 63.5 19.5754 63.5 29.177C63.5 38.7787 55.7186 46.5595 46.1139 46.5595H1.8828C1.11931 46.5595 0.500297 45.9405 0.500297 45.177C0.500297 44.4136 1.11917 43.7948 1.8828 43.7948H46.1139C54.1917 43.7948 60.735 37.2514 60.735 29.1774C60.735 21.1034 54.1904 14.56 46.1157 14.56H19.6025H18.3954L19.2489 15.4135L27.3296 23.4942C27.8693 24.0339 27.8694 24.9091 27.3296 25.4492L18.3963 11.7946ZM4.19127 12.8233L3.83772 13.1768L4.19127 13.5304L14.1542 23.4933C14.6939 24.033 14.694 24.9082 14.1541 25.4484C13.6144 25.988 12.7393 25.9881 12.1992 25.4483C12.1992 25.4483 12.1991 25.4483 12.1991 25.4482L0.905071 14.1542L0.904985 14.1541C0.365052 13.6144 0.364929 12.7393 0.905071 12.1992L12.1992 0.905071C12.7393 0.364928 13.6144 0.365054 14.1541 0.904983L14.1542 0.905071C14.6939 1.44476 14.694 2.32 14.1541 2.86016L14.0077 3.00659V3.0068L4.19127 12.8233Z" fill="black" stroke="white"/>
</svg>
