<svg width="500" height="500" viewBox="0 0 500 500" fill="none" xmlns="http://www.w3.org/2000/svg">
<rect width="500" height="500" fill="#565656"/>
<rect x="12" y="14" width="475" height="437.5" fill="white"/>
<circle cx="58" cy="475" r="10" fill="url(#paint0_linear_165_202)"/>
<circle cx="106" cy="475" r="10" fill="url(#paint1_linear_165_202)"/>
<circle cx="154" cy="475" r="10" fill="url(#paint2_linear_165_202)"/>
<circle cx="202" cy="475" r="10" fill="url(#paint3_linear_165_202)"/>
<circle cx="250" cy="475" r="10" fill="url(#paint4_linear_165_202)"/>
<circle cx="298" cy="475" r="10" fill="url(#paint5_linear_165_202)"/>
<circle cx="346" cy="475" r="10" fill="url(#paint6_linear_165_202)"/>
<circle cx="394" cy="475" r="10" fill="url(#paint7_linear_165_202)"/>
<circle cx="442" cy="475" r="10" fill="url(#paint8_linear_165_202)"/>
<path d="M120.489 301.032V300.087C120.489 294.188 116.704 289.605 112.479 285.321C116.655 281.113 120.617 276.32 120.617 270.214C120.617 262.355 114.225 255.96 106.367 255.96C98.5077 255.96 92.1161 262.355 92.1161 270.214C92.1161 276.32 96.0817 281.113 100.254 285.321C96.0292 289.608 92.2442 294.188 92.2442 300.087V301.032C91.5449 301.147 91 301.732 91 302.464C91 303.278 91.6631 303.941 92.4772 303.941C93.2914 303.941 93.9545 303.278 93.9545 302.464C93.9545 301.732 93.4095 301.151 92.7103 301.032V300.087C92.7103 294.368 96.4264 289.868 100.579 285.653C101.226 286.299 101.872 286.93 102.509 287.55C102.733 287.77 102.952 287.983 103.176 288.203C99.7026 291.88 96.7711 295.724 96.7711 299.998V311.455C96.0719 311.57 95.5269 312.154 95.5269 312.883C95.5269 313.697 96.19 314.36 97.0042 314.36C97.8183 314.36 98.4814 313.697 98.4814 312.883C98.4814 312.151 97.9365 311.57 97.2372 311.455V299.998C97.2372 295.865 100.024 292.212 103.507 288.532C104.394 289.402 105.244 290.265 106.045 291.125C103.468 293.955 101.547 296.811 101.547 300.005V307.105C100.848 307.22 100.303 307.805 100.303 308.537C100.303 309.351 100.966 310.014 101.781 310.014C102.595 310.014 103.258 309.351 103.258 308.537C103.258 307.805 102.713 307.224 102.014 307.105V300.005C102.014 296.975 103.862 294.214 106.36 291.47C108.855 294.214 110.706 296.975 110.706 300.005V307.105C110.007 307.22 109.462 307.805 109.462 308.537C109.462 309.351 110.125 310.014 110.939 310.014C111.754 310.014 112.417 309.351 112.417 308.537C112.417 307.805 111.872 307.224 111.173 307.105V300.005C111.173 296.811 109.252 293.951 106.675 291.125C107.476 290.262 108.326 289.398 109.213 288.532C112.696 292.212 115.483 295.862 115.483 299.998V311.455C114.784 311.57 114.239 312.154 114.239 312.883C114.239 313.697 114.902 314.36 115.716 314.36C116.53 314.36 117.193 313.697 117.193 312.883C117.193 312.151 116.648 311.57 115.949 311.455V299.998C115.949 295.724 113.017 291.883 109.544 288.203C109.767 287.987 109.984 287.77 110.211 287.55C110.848 286.93 111.494 286.296 112.141 285.653C116.294 289.871 120.01 294.368 120.01 300.087V301.032C119.31 301.147 118.766 301.732 118.766 302.464C118.766 303.278 119.429 303.941 120.243 303.941C121.057 303.941 121.72 303.278 121.72 302.464C121.72 301.732 121.175 301.151 120.476 301.032H120.489ZM93.4883 302.464C93.4883 303.022 93.0353 303.475 92.4772 303.475C91.9192 303.475 91.4662 303.022 91.4662 302.464C91.4662 301.906 91.9192 301.453 92.4772 301.453C93.0353 301.453 93.4883 301.906 93.4883 302.464ZM102.798 308.537C102.798 309.095 102.345 309.548 101.787 309.548C101.229 309.548 100.776 309.095 100.776 308.537C100.776 307.979 101.229 307.526 101.787 307.526C102.345 307.526 102.798 307.979 102.798 308.537ZM116.737 312.883C116.737 313.441 116.284 313.894 115.726 313.894C115.168 313.894 114.715 313.441 114.715 312.883C114.715 312.325 115.168 311.872 115.726 311.872C116.284 311.872 116.737 312.325 116.737 312.883ZM106.367 256.426C113.969 256.426 120.151 262.611 120.151 270.214C120.151 276.175 116.382 280.738 112.154 284.99C111.547 284.379 110.933 283.772 110.322 283.171C110.05 282.905 109.787 282.639 109.518 282.373C113.021 278.628 115.946 274.688 115.946 270.214C115.946 264.932 111.649 260.635 106.367 260.635C101.085 260.635 96.7875 264.935 96.7875 270.214C96.7875 274.688 99.7091 278.631 103.215 282.373C102.946 282.639 102.683 282.902 102.411 283.171C101.8 283.775 101.186 284.379 100.579 284.99C96.3509 280.735 92.5823 276.172 92.5823 270.214C92.5823 262.611 98.767 256.43 106.367 256.426ZM106.367 284.947C105.523 284.1 104.683 283.246 103.865 282.386C104.735 281.52 105.575 280.66 106.367 279.796C107.158 280.66 107.995 281.523 108.868 282.386C108.051 283.25 107.21 284.1 106.367 284.947ZM106.682 279.445C109.314 276.517 111.274 273.552 111.274 270.214C111.274 267.509 109.075 265.309 106.37 265.306C103.665 265.306 101.465 267.509 101.465 270.214C101.465 273.552 103.425 276.517 106.058 279.445C105.267 280.308 104.426 281.175 103.55 282.045C100.116 278.372 97.2602 274.521 97.2602 270.214C97.2602 265.188 101.347 261.101 106.373 261.101C111.399 261.101 115.486 265.188 115.486 270.214C115.486 274.521 112.63 278.372 109.196 282.045C108.32 281.175 107.483 280.308 106.688 279.445H106.682ZM106.367 279.097C103.816 276.254 101.928 273.385 101.928 270.214C101.928 267.765 103.918 265.776 106.367 265.776C108.815 265.776 110.805 267.768 110.805 270.214C110.805 273.385 108.917 276.251 106.367 279.097ZM102.838 287.219C102.194 286.592 101.547 285.958 100.907 285.321C101.515 284.711 102.129 284.107 102.739 283.502C103.008 283.237 103.271 282.977 103.534 282.715C104.351 283.578 105.195 284.432 106.038 285.278C105.185 286.135 104.328 286.995 103.497 287.865C103.277 287.649 103.061 287.435 102.838 287.219ZM106.367 290.78C105.566 289.92 104.715 289.06 103.836 288.197C104.656 287.34 105.503 286.48 106.367 285.61C107.233 286.48 108.077 287.34 108.898 288.197C108.018 289.06 107.168 289.924 106.367 290.78ZM109.896 287.219C109.672 287.435 109.456 287.649 109.236 287.865C108.405 286.995 107.548 286.135 106.695 285.278C107.539 284.432 108.382 283.578 109.2 282.715C109.465 282.977 109.728 283.24 109.994 283.502C110.605 284.107 111.218 284.711 111.826 285.321C111.186 285.958 110.539 286.588 109.896 287.219Z" fill="#231F20" stroke="black" stroke-width="0.6"/>
<path d="M407.209 301.032V300.087C407.209 294.188 403.424 289.605 399.199 285.321C403.375 281.113 407.337 276.32 407.337 270.214C407.337 262.355 400.945 255.96 393.087 255.96C385.228 255.96 378.836 262.355 378.836 270.214C378.836 276.32 382.802 281.113 386.974 285.321C382.749 289.608 378.964 294.188 378.964 300.087V301.032C378.265 301.147 377.72 301.732 377.72 302.464C377.72 303.278 378.383 303.941 379.197 303.941C380.011 303.941 380.674 303.278 380.674 302.464C380.674 301.732 380.13 301.151 379.43 301.032V300.087C379.43 294.368 383.146 289.868 387.299 285.653C387.946 286.299 388.592 286.93 389.229 287.55C389.453 287.77 389.672 287.983 389.896 288.203C386.423 291.88 383.491 295.724 383.491 299.998V311.455C382.792 311.57 382.247 312.154 382.247 312.883C382.247 313.697 382.91 314.36 383.724 314.36C384.538 314.36 385.201 313.697 385.201 312.883C385.201 312.151 384.656 311.57 383.957 311.455V299.998C383.957 295.865 386.744 292.212 390.227 288.532C391.114 289.402 391.964 290.265 392.765 291.125C390.188 293.955 388.267 296.811 388.267 300.005V307.105C387.568 307.22 387.023 307.805 387.023 308.537C387.023 309.351 387.686 310.014 388.501 310.014C389.315 310.014 389.978 309.351 389.978 308.537C389.978 307.805 389.433 307.224 388.734 307.105V300.005C388.734 296.975 390.582 294.214 393.08 291.47C395.575 294.214 397.426 296.975 397.426 300.005V307.105C396.727 307.22 396.182 307.805 396.182 308.537C396.182 309.351 396.845 310.014 397.659 310.014C398.474 310.014 399.137 309.351 399.137 308.537C399.137 307.805 398.592 307.224 397.892 307.105V300.005C397.892 296.811 395.972 293.951 393.395 291.125C394.196 290.262 395.046 289.398 395.933 288.532C399.416 292.212 402.203 295.862 402.203 299.998V311.455C401.504 311.57 400.959 312.154 400.959 312.883C400.959 313.697 401.622 314.36 402.436 314.36C403.25 314.36 403.913 313.697 403.913 312.883C403.913 312.151 403.368 311.57 402.669 311.455V299.998C402.669 295.724 399.737 291.883 396.264 288.203C396.487 287.987 396.704 287.77 396.931 287.55C397.567 286.93 398.214 286.296 398.861 285.653C403.014 289.871 406.73 294.368 406.73 300.087V301.032C406.03 301.147 405.485 301.732 405.485 302.464C405.485 303.278 406.149 303.941 406.963 303.941C407.777 303.941 408.44 303.278 408.44 302.464C408.44 301.732 407.895 301.151 407.196 301.032H407.209ZM380.208 302.464C380.208 303.022 379.755 303.475 379.197 303.475C378.639 303.475 378.186 303.022 378.186 302.464C378.186 301.906 378.639 301.453 379.197 301.453C379.755 301.453 380.208 301.906 380.208 302.464ZM389.518 308.537C389.518 309.095 389.065 309.548 388.507 309.548C387.949 309.548 387.496 309.095 387.496 308.537C387.496 307.979 387.949 307.526 388.507 307.526C389.065 307.526 389.518 307.979 389.518 308.537ZM403.457 312.883C403.457 313.441 403.004 313.894 402.446 313.894C401.888 313.894 401.435 313.441 401.435 312.883C401.435 312.325 401.888 311.872 402.446 311.872C403.004 311.872 403.457 312.325 403.457 312.883ZM393.087 256.426C400.689 256.426 406.871 262.611 406.871 270.214C406.871 276.175 403.102 280.738 398.874 284.99C398.267 284.379 397.653 283.772 397.042 283.171C396.77 282.905 396.507 282.639 396.238 282.373C399.741 278.628 402.666 274.688 402.666 270.214C402.666 264.932 398.368 260.635 393.087 260.635C387.805 260.635 383.507 264.935 383.507 270.214C383.507 274.688 386.429 278.631 389.935 282.373C389.666 282.639 389.403 282.902 389.131 283.171C388.52 283.775 387.906 284.379 387.299 284.99C383.071 280.735 379.302 276.172 379.302 270.214C379.302 262.611 385.487 256.43 393.087 256.426ZM393.087 284.947C392.243 284.1 391.402 283.246 390.585 282.386C391.455 281.52 392.295 280.66 393.087 279.796C393.878 280.66 394.715 281.523 395.588 282.386C394.771 283.25 393.93 284.1 393.087 284.947ZM393.402 279.445C396.034 276.517 397.994 273.552 397.994 270.214C397.994 267.509 395.795 265.309 393.09 265.306C390.385 265.306 388.185 267.509 388.185 270.214C388.185 273.552 390.145 276.517 392.778 279.445C391.987 280.308 391.146 281.175 390.27 282.045C386.836 278.372 383.98 274.521 383.98 270.214C383.98 265.188 388.067 261.101 393.093 261.101C398.119 261.101 402.206 265.188 402.206 270.214C402.206 274.521 399.35 278.372 395.916 282.045C395.04 281.175 394.203 280.308 393.408 279.445H393.402ZM393.087 279.097C390.536 276.254 388.648 273.385 388.648 270.214C388.648 267.765 390.638 265.776 393.087 265.776C395.535 265.776 397.525 267.768 397.525 270.214C397.525 273.385 395.637 276.251 393.087 279.097ZM389.558 287.219C388.914 286.592 388.267 285.958 387.627 285.321C388.235 284.711 388.848 284.107 389.459 283.502C389.728 283.237 389.991 282.977 390.254 282.715C391.071 283.578 391.915 284.432 392.758 285.278C391.905 286.135 391.048 286.995 390.217 287.865C389.997 287.649 389.781 287.435 389.558 287.219ZM393.087 290.78C392.286 289.92 391.435 289.06 390.556 288.197C391.376 287.34 392.223 286.48 393.087 285.61C393.953 286.48 394.797 287.34 395.618 288.197C394.738 289.06 393.888 289.924 393.087 290.78ZM396.615 287.219C396.392 287.435 396.176 287.649 395.956 287.865C395.125 286.995 394.268 286.135 393.415 285.278C394.258 284.432 395.102 283.578 395.92 282.715C396.185 282.977 396.448 283.24 396.714 283.502C397.325 284.107 397.938 284.711 398.546 285.321C397.906 285.958 397.259 286.588 396.615 287.219Z" fill="#231F20" stroke="black" stroke-width="0.6"/>
<path d="M56.489 405.672V404.727C56.489 398.827 52.7039 394.245 48.479 389.961C52.6547 385.752 56.617 380.959 56.617 374.854C56.617 366.995 50.2255 360.6 42.3666 360.6C34.5077 360.6 28.1161 366.995 28.1161 374.854C28.1161 380.959 32.0817 385.752 36.2541 389.961C32.0292 394.248 28.2442 398.827 28.2442 404.727V405.672C27.5449 405.787 27 406.371 27 407.103C27 407.917 27.6631 408.581 28.4772 408.581C29.2914 408.581 29.9545 407.917 29.9545 407.103C29.9545 406.371 29.4095 405.79 28.7103 405.672V404.727C28.7103 399.008 32.4264 394.507 36.5791 390.292C37.2258 390.939 37.8725 391.569 38.5093 392.19C38.7326 392.41 38.9525 392.623 39.1757 392.843C35.7026 396.52 32.7711 400.364 32.7711 404.638V416.095C32.0719 416.21 31.5269 416.794 31.5269 417.523C31.5269 418.337 32.19 419 33.0042 419C33.8183 419 34.4814 418.337 34.4814 417.523C34.4814 416.791 33.9365 416.21 33.2372 416.095V404.638C33.2372 400.505 36.0243 396.851 39.5073 393.171C40.3936 394.041 41.2439 394.905 42.0449 395.765C39.4679 398.594 37.5475 401.45 37.5475 404.645V411.745C36.8483 411.86 36.3033 412.444 36.3033 413.176C36.3033 413.991 36.9664 414.654 37.7806 414.654C38.5947 414.654 39.2578 413.991 39.2578 413.176C39.2578 412.444 38.7129 411.863 38.0136 411.745V404.645C38.0136 401.615 39.8618 398.854 42.36 396.109C44.8549 398.854 46.7064 401.615 46.7064 404.645V411.745C46.0071 411.86 45.4622 412.444 45.4622 413.176C45.4622 413.991 46.1253 414.654 46.9394 414.654C47.7536 414.654 48.4167 413.991 48.4167 413.176C48.4167 412.444 47.8717 411.863 47.1725 411.745V404.645C47.1725 401.45 45.2521 398.591 42.6751 395.765C43.4761 394.901 44.3264 394.038 45.2127 393.171C48.6957 396.851 51.4828 400.502 51.4828 404.638V416.095C50.7835 416.21 50.2386 416.794 50.2386 417.523C50.2386 418.337 50.9017 419 51.7158 419C52.53 419 53.1931 418.337 53.1931 417.523C53.1931 416.791 52.6481 416.21 51.9489 416.095V404.638C51.9489 400.364 49.0174 396.523 45.5443 392.843C45.7675 392.626 45.9842 392.41 46.2107 392.19C46.8475 391.569 47.4942 390.936 48.1409 390.292C52.2936 394.511 56.0097 399.008 56.0097 404.727V405.672C55.3104 405.787 54.7655 406.371 54.7655 407.103C54.7655 407.917 55.4286 408.581 56.2427 408.581C57.0569 408.581 57.72 407.917 57.72 407.103C57.72 406.371 57.1751 405.79 56.4758 405.672H56.489ZM29.4883 407.103C29.4883 407.661 29.0353 408.114 28.4772 408.114C27.9192 408.114 27.4662 407.661 27.4662 407.103C27.4662 406.545 27.9192 406.092 28.4772 406.092C29.0353 406.092 29.4883 406.545 29.4883 407.103ZM38.7982 413.176C38.7982 413.734 38.3452 414.187 37.7871 414.187C37.2291 414.187 36.776 413.734 36.776 413.176C36.776 412.618 37.2291 412.165 37.7871 412.165C38.3452 412.165 38.7982 412.618 38.7982 413.176ZM52.7368 417.523C52.7368 418.081 52.2838 418.534 51.7257 418.534C51.1676 418.534 50.7146 418.081 50.7146 417.523C50.7146 416.965 51.1676 416.512 51.7257 416.512C52.2838 416.512 52.7368 416.965 52.7368 417.523ZM42.3666 361.066C49.9694 361.066 56.1508 367.251 56.1508 374.854C56.1508 380.815 52.3822 385.378 48.154 389.629C47.5467 389.019 46.9329 388.411 46.3223 387.811C46.0498 387.545 45.7872 387.279 45.518 387.013C49.0207 383.267 51.9456 379.328 51.9456 374.854C51.9456 369.572 47.6485 365.274 42.3666 365.274C37.0846 365.274 32.7875 369.575 32.7875 374.854C32.7875 379.328 35.7091 383.271 39.2151 387.013C38.9459 387.279 38.6833 387.541 38.4108 387.811C37.8003 388.415 37.1864 389.019 36.5791 389.629C32.3509 385.375 28.5823 380.812 28.5823 374.854C28.5823 367.251 34.767 361.069 42.3666 361.066ZM42.3666 389.587C41.5229 388.74 40.6825 387.886 39.8651 387.026C40.735 386.159 41.5754 385.299 42.3666 384.436C43.1577 385.299 43.9948 386.163 44.868 387.026C44.0506 387.889 43.2102 388.74 42.3666 389.587ZM42.6817 384.085C45.3145 381.156 47.2743 378.192 47.2743 374.854C47.2743 372.149 45.0748 369.949 42.3698 369.946C39.6649 369.946 37.4654 372.149 37.4654 374.854C37.4654 378.192 39.4252 381.156 42.058 384.085C41.2668 384.948 40.4265 385.815 39.55 386.685C36.1162 383.011 33.2602 379.161 33.2602 374.854C33.2602 369.828 37.3472 365.741 42.3731 365.741C47.399 365.741 51.486 369.828 51.486 374.854C51.486 379.161 48.6301 383.011 45.1963 386.685C44.3198 385.815 43.4827 384.948 42.6883 384.085H42.6817ZM42.3666 383.737C39.8159 380.894 37.9283 378.025 37.9283 374.854C37.9283 372.405 39.9176 370.415 42.3666 370.415C44.8155 370.415 46.8048 372.408 46.8048 374.854C46.8048 378.025 44.9173 380.891 42.3666 383.737ZM38.8376 391.858C38.1942 391.231 37.5475 390.598 36.9073 389.961C37.5147 389.35 38.1285 388.746 38.7391 388.142C39.0083 387.876 39.2709 387.617 39.5335 387.354C40.3509 388.218 41.1946 389.071 42.0383 389.918C41.1848 390.775 40.328 391.635 39.4974 392.505C39.2775 392.288 39.0608 392.075 38.8376 391.858ZM42.3666 395.42C41.5656 394.56 40.7153 393.7 39.8356 392.836C40.6562 391.98 41.5032 391.12 42.3666 390.25C43.2332 391.12 44.0769 391.98 44.8976 392.836C44.0178 393.7 43.1676 394.563 42.3666 395.42ZM45.8955 391.858C45.6723 392.075 45.4556 392.288 45.2357 392.505C44.4051 391.635 43.5484 390.775 42.6948 389.918C43.5385 389.071 44.3822 388.218 45.1996 387.354C45.4655 387.617 45.7281 387.88 45.994 388.142C46.6046 388.746 47.2185 389.35 47.8258 389.961C47.1856 390.598 46.5389 391.228 45.8955 391.858Z" fill="#231F20" stroke="black" stroke-width="0.6"/>
<path d="M471.209 405.672V404.727C471.209 398.827 467.424 394.245 463.199 389.961C467.374 385.752 471.337 380.959 471.337 374.854C471.337 366.995 464.945 360.6 457.086 360.6C449.227 360.6 442.836 366.995 442.836 374.854C442.836 380.959 446.801 385.752 450.974 389.961C446.749 394.248 442.964 398.827 442.964 404.727V405.672C442.265 405.787 441.72 406.371 441.72 407.103C441.72 407.917 442.383 408.581 443.197 408.581C444.011 408.581 444.674 407.917 444.674 407.103C444.674 406.371 444.129 405.79 443.43 405.672V404.727C443.43 399.008 447.146 394.507 451.299 390.292C451.945 390.939 452.592 391.569 453.229 392.19C453.452 392.41 453.672 392.623 453.895 392.843C450.422 396.52 447.491 400.364 447.491 404.638V416.095C446.792 416.21 446.247 416.794 446.247 417.523C446.247 418.337 446.91 419 447.724 419C448.538 419 449.201 418.337 449.201 417.523C449.201 416.791 448.656 416.21 447.957 416.095V404.638C447.957 400.505 450.744 396.851 454.227 393.171C455.113 394.041 455.964 394.905 456.765 395.765C454.188 398.594 452.267 401.45 452.267 404.645V411.745C451.568 411.86 451.023 412.444 451.023 413.176C451.023 413.991 451.686 414.654 452.5 414.654C453.314 414.654 453.978 413.991 453.978 413.176C453.978 412.444 453.433 411.863 452.733 411.745V404.645C452.733 401.615 454.582 398.854 457.08 396.109C459.575 398.854 461.426 401.615 461.426 404.645V411.745C460.727 411.86 460.182 412.444 460.182 413.176C460.182 413.991 460.845 414.654 461.659 414.654C462.473 414.654 463.136 413.991 463.136 413.176C463.136 412.444 462.591 411.863 461.892 411.745V404.645C461.892 401.45 459.972 398.591 457.395 395.765C458.196 394.901 459.046 394.038 459.932 393.171C463.415 396.851 466.202 400.502 466.202 404.638V416.095C465.503 416.21 464.958 416.794 464.958 417.523C464.958 418.337 465.621 419 466.436 419C467.25 419 467.913 418.337 467.913 417.523C467.913 416.791 467.368 416.21 466.669 416.095V404.638C466.669 400.364 463.737 396.523 460.264 392.843C460.487 392.626 460.704 392.41 460.93 392.19C461.567 391.569 462.214 390.936 462.861 390.292C467.013 394.511 470.729 399.008 470.729 404.727V405.672C470.03 405.787 469.485 406.371 469.485 407.103C469.485 407.917 470.148 408.581 470.962 408.581C471.777 408.581 472.44 407.917 472.44 407.103C472.44 406.371 471.895 405.79 471.196 405.672H471.209ZM444.208 407.103C444.208 407.661 443.755 408.114 443.197 408.114C442.639 408.114 442.186 407.661 442.186 407.103C442.186 406.545 442.639 406.092 443.197 406.092C443.755 406.092 444.208 406.545 444.208 407.103ZM453.518 413.176C453.518 413.734 453.065 414.187 452.507 414.187C451.949 414.187 451.496 413.734 451.496 413.176C451.496 412.618 451.949 412.165 452.507 412.165C453.065 412.165 453.518 412.618 453.518 413.176ZM467.457 417.523C467.457 418.081 467.003 418.534 466.445 418.534C465.887 418.534 465.434 418.081 465.434 417.523C465.434 416.965 465.887 416.512 466.445 416.512C467.003 416.512 467.457 416.965 467.457 417.523ZM457.086 361.066C464.689 361.066 470.871 367.251 470.871 374.854C470.871 380.815 467.102 385.378 462.874 389.629C462.266 389.019 461.653 388.411 461.042 387.811C460.77 387.545 460.507 387.279 460.238 387.013C463.74 383.267 466.665 379.328 466.665 374.854C466.665 369.572 462.368 365.274 457.086 365.274C451.804 365.274 447.507 369.575 447.507 374.854C447.507 379.328 450.429 383.271 453.935 387.013C453.666 387.279 453.403 387.541 453.131 387.811C452.52 388.415 451.906 389.019 451.299 389.629C447.071 385.375 443.302 380.812 443.302 374.854C443.302 367.251 449.487 361.069 457.086 361.066ZM457.086 389.587C456.243 388.74 455.402 387.886 454.585 387.026C455.455 386.159 456.295 385.299 457.086 384.436C457.877 385.299 458.715 386.163 459.588 387.026C458.77 387.889 457.93 388.74 457.086 389.587ZM457.401 384.085C460.034 381.156 461.994 378.192 461.994 374.854C461.994 372.149 459.795 369.949 457.09 369.946C454.385 369.946 452.185 372.149 452.185 374.854C452.185 378.192 454.145 381.156 456.778 384.085C455.987 384.948 455.146 385.815 454.27 386.685C450.836 383.011 447.98 379.161 447.98 374.854C447.98 369.828 452.067 365.741 457.093 365.741C462.119 365.741 466.206 369.828 466.206 374.854C466.206 379.161 463.35 383.011 459.916 386.685C459.04 385.815 458.202 384.948 457.408 384.085H457.401ZM457.086 383.737C454.536 380.894 452.648 378.025 452.648 374.854C452.648 372.405 454.637 370.415 457.086 370.415C459.535 370.415 461.525 372.408 461.525 374.854C461.525 378.025 459.637 380.891 457.086 383.737ZM453.557 391.858C452.914 391.231 452.267 390.598 451.627 389.961C452.234 389.35 452.848 388.746 453.459 388.142C453.728 387.876 453.991 387.617 454.253 387.354C455.071 388.218 455.914 389.071 456.758 389.918C455.904 390.775 455.048 391.635 454.217 392.505C453.997 392.288 453.781 392.075 453.557 391.858ZM457.086 395.42C456.285 394.56 455.435 393.7 454.555 392.836C455.376 391.98 456.223 391.12 457.086 390.25C457.953 391.12 458.797 391.98 459.617 392.836C458.738 393.7 457.887 394.563 457.086 395.42ZM460.615 391.858C460.392 392.075 460.175 392.288 459.955 392.505C459.125 391.635 458.268 390.775 457.415 389.918C458.258 389.071 459.102 388.218 459.919 387.354C460.185 387.617 460.448 387.88 460.714 388.142C461.324 388.746 461.938 389.35 462.546 389.961C461.905 390.598 461.259 391.228 460.615 391.858Z" fill="#231F20" stroke="black" stroke-width="0.6"/>
<path d="M263.849 92.0722V91.1267C263.849 85.2276 260.064 80.6449 255.839 76.3609C260.015 72.1524 263.977 67.3596 263.977 61.2537C263.977 53.3948 257.585 47 249.726 47C241.868 47 235.476 53.3948 235.476 61.2537C235.476 67.3596 239.442 72.1524 243.614 76.3609C239.389 80.6482 235.604 85.2276 235.604 91.1267V92.0722C234.905 92.1871 234.36 92.7714 234.36 93.5035C234.36 94.3176 235.023 94.9807 235.837 94.9807C236.651 94.9807 237.314 94.3176 237.314 93.5035C237.314 92.7714 236.769 92.1903 236.07 92.0722V91.1267C236.07 85.4082 239.786 80.9075 243.939 76.6925C244.586 77.3392 245.232 77.9695 245.869 78.5899C246.092 78.8099 246.312 79.0232 246.536 79.2432C243.062 82.9199 240.131 86.764 240.131 91.0381V102.495C239.432 102.61 238.887 103.194 238.887 103.923C238.887 104.737 239.55 105.4 240.364 105.4C241.178 105.4 241.841 104.737 241.841 103.923C241.841 103.191 241.296 102.61 240.597 102.495V91.0381C240.597 86.9051 243.384 83.2514 246.867 79.5715C247.753 80.4414 248.604 81.3048 249.405 82.1648C246.828 84.9946 244.907 87.8506 244.907 91.0447V98.1453C244.208 98.2602 243.663 98.8445 243.663 99.5765C243.663 100.391 244.326 101.054 245.14 101.054C245.955 101.054 246.618 100.391 246.618 99.5765C246.618 98.8445 246.073 98.2634 245.373 98.1453V91.0447C245.373 88.0147 247.222 85.2539 249.72 82.5095C252.215 85.2539 254.066 88.0147 254.066 91.0447V98.1453C253.367 98.2602 252.822 98.8445 252.822 99.5765C252.822 100.391 253.485 101.054 254.299 101.054C255.113 101.054 255.777 100.391 255.777 99.5765C255.777 98.8445 255.232 98.2634 254.532 98.1453V91.0447C254.532 87.8506 252.612 84.9913 250.035 82.1648C250.836 81.3015 251.686 80.4381 252.573 79.5715C256.056 83.2514 258.843 86.9018 258.843 91.0381V102.495C258.143 102.61 257.598 103.194 257.598 103.923C257.598 104.737 258.262 105.4 259.076 105.4C259.89 105.4 260.553 104.737 260.553 103.923C260.553 103.191 260.008 102.61 259.309 102.495V91.0381C259.309 86.764 256.377 82.9231 252.904 79.2432C253.127 79.0265 253.344 78.8099 253.571 78.5899C254.207 77.9695 254.854 77.3359 255.501 76.6925C259.653 80.9108 263.37 85.4082 263.37 91.1267V92.0722C262.67 92.1871 262.125 92.7714 262.125 93.5035C262.125 94.3176 262.788 94.9807 263.603 94.9807C264.417 94.9807 265.08 94.3176 265.08 93.5035C265.08 92.7714 264.535 92.1903 263.836 92.0722H263.849ZM236.848 93.5035C236.848 94.0615 236.395 94.5145 235.837 94.5145C235.279 94.5145 234.826 94.0615 234.826 93.5035C234.826 92.9454 235.279 92.4924 235.837 92.4924C236.395 92.4924 236.848 92.9454 236.848 93.5035ZM246.158 99.5765C246.158 100.135 245.705 100.588 245.147 100.588C244.589 100.588 244.136 100.135 244.136 99.5765C244.136 99.0185 244.589 98.5655 245.147 98.5655C245.705 98.5655 246.158 99.0185 246.158 99.5765ZM260.097 103.923C260.097 104.481 259.644 104.934 259.086 104.934C258.527 104.934 258.074 104.481 258.074 103.923C258.074 103.365 258.527 102.912 259.086 102.912C259.644 102.912 260.097 103.365 260.097 103.923ZM249.726 47.4662C257.329 47.4662 263.511 53.6509 263.511 61.2537C263.511 67.2152 259.742 71.7782 255.514 76.0294C254.907 75.4188 254.293 74.8115 253.682 74.2107C253.41 73.9448 253.147 73.6789 252.878 73.413C256.381 69.6674 259.305 65.7281 259.305 61.2537C259.305 55.9718 255.008 51.6746 249.726 51.6746C244.444 51.6746 240.147 55.975 240.147 61.2537C240.147 65.7281 243.069 69.6707 246.575 73.413C246.306 73.6789 246.043 73.9415 245.771 74.2107C245.16 74.8148 244.546 75.4188 243.939 76.0294C239.711 71.7749 235.942 67.2119 235.942 61.2537C235.942 53.6509 242.127 47.4694 249.726 47.4662ZM249.726 75.9867C248.883 75.1397 248.042 74.2862 247.225 73.4262C248.095 72.5595 248.935 71.6994 249.726 70.8361C250.518 71.6994 251.355 72.5628 252.228 73.4262C251.41 74.2895 250.57 75.1397 249.726 75.9867ZM250.042 70.4848C252.674 67.5566 254.634 64.5923 254.634 61.2537C254.634 58.5487 252.435 56.3493 249.73 56.346C247.025 56.346 244.825 58.5487 244.825 61.2537C244.825 64.5923 246.785 67.5566 249.418 70.4848C248.627 71.3482 247.786 72.2148 246.91 73.0847C243.476 69.4113 240.62 65.5607 240.62 61.2537C240.62 56.2278 244.707 52.1408 249.733 52.1408C254.759 52.1408 258.846 56.2278 258.846 61.2537C258.846 65.5607 255.99 69.4113 252.556 73.0847C251.68 72.2148 250.843 71.3482 250.048 70.4848H250.042ZM249.726 70.1368C247.176 67.294 245.288 64.4248 245.288 61.2537C245.288 58.8048 247.277 56.8154 249.726 56.8154C252.175 56.8154 254.165 58.8081 254.165 61.2537C254.165 64.4248 252.277 67.2907 249.726 70.1368ZM246.197 78.2584C245.554 77.6314 244.907 76.9978 244.267 76.3609C244.875 75.7503 245.488 75.1463 246.099 74.5423C246.368 74.2764 246.631 74.017 246.893 73.7544C247.711 74.6178 248.554 75.4713 249.398 76.3183C248.545 77.1751 247.688 78.0351 246.857 78.9051C246.637 78.6884 246.421 78.475 246.197 78.2584ZM249.726 81.8201C248.925 80.9601 248.075 80.1 247.195 79.2366C248.016 78.3798 248.863 77.5197 249.726 76.6498C250.593 77.5197 251.437 78.3798 252.257 79.2366C251.378 80.1 250.527 80.9633 249.726 81.8201ZM253.255 78.2584C253.032 78.475 252.815 78.6884 252.596 78.9051C251.765 78.0351 250.908 77.1751 250.055 76.3183C250.898 75.4713 251.742 74.6178 252.559 73.7544C252.825 74.017 253.088 74.2797 253.354 74.5423C253.964 75.1463 254.578 75.7503 255.186 76.3609C254.546 76.9978 253.899 77.6281 253.255 78.2584Z" fill="#231F20" stroke="black" stroke-width="0.6"/>
<path d="M184.489 196.552V195.607C184.489 189.708 180.704 185.125 176.479 180.841C180.655 176.633 184.617 171.84 184.617 165.734C184.617 157.875 178.225 151.48 170.367 151.48C162.508 151.48 156.116 157.875 156.116 165.734C156.116 171.84 160.082 176.633 164.254 180.841C160.029 185.128 156.244 189.708 156.244 195.607V196.552C155.545 196.667 155 197.252 155 197.984C155 198.798 155.663 199.461 156.477 199.461C157.291 199.461 157.954 198.798 157.954 197.984C157.954 197.252 157.41 196.67 156.71 196.552V195.607C156.71 189.888 160.426 185.388 164.579 181.173C165.226 181.819 165.872 182.45 166.509 183.07C166.733 183.29 166.952 183.503 167.176 183.723C163.703 187.4 160.771 191.244 160.771 195.518V206.975C160.072 207.09 159.527 207.674 159.527 208.403C159.527 209.217 160.19 209.88 161.004 209.88C161.818 209.88 162.481 209.217 162.481 208.403C162.481 207.671 161.936 207.09 161.237 206.975V195.518C161.237 191.385 164.024 187.732 167.507 184.052C168.394 184.921 169.244 185.785 170.045 186.645C167.468 189.475 165.547 192.331 165.547 195.525V202.625C164.848 202.74 164.303 203.325 164.303 204.057C164.303 204.871 164.966 205.534 165.781 205.534C166.595 205.534 167.258 204.871 167.258 204.057C167.258 203.325 166.713 202.744 166.014 202.625V195.525C166.014 192.495 167.862 189.734 170.36 186.99C172.855 189.734 174.706 192.495 174.706 195.525V202.625C174.007 202.74 173.462 203.325 173.462 204.057C173.462 204.871 174.125 205.534 174.939 205.534C175.754 205.534 176.417 204.871 176.417 204.057C176.417 203.325 175.872 202.744 175.173 202.625V195.525C175.173 192.331 173.252 189.471 170.675 186.645C171.476 185.782 172.326 184.918 173.213 184.052C176.696 187.732 179.483 191.382 179.483 195.518V206.975C178.784 207.09 178.239 207.674 178.239 208.403C178.239 209.217 178.902 209.88 179.716 209.88C180.53 209.88 181.193 209.217 181.193 208.403C181.193 207.671 180.648 207.09 179.949 206.975V195.518C179.949 191.244 177.017 187.403 173.544 183.723C173.767 183.507 173.984 183.29 174.211 183.07C174.848 182.45 175.494 181.816 176.141 181.173C180.294 185.391 184.01 189.888 184.01 195.607V196.552C183.31 196.667 182.766 197.252 182.766 197.984C182.766 198.798 183.429 199.461 184.243 199.461C185.057 199.461 185.72 198.798 185.72 197.984C185.72 197.252 185.175 196.67 184.476 196.552H184.489ZM157.488 197.984C157.488 198.542 157.035 198.995 156.477 198.995C155.919 198.995 155.466 198.542 155.466 197.984C155.466 197.425 155.919 196.972 156.477 196.972C157.035 196.972 157.488 197.425 157.488 197.984ZM166.798 204.057C166.798 204.615 166.345 205.068 165.787 205.068C165.229 205.068 164.776 204.615 164.776 204.057C164.776 203.499 165.229 203.046 165.787 203.046C166.345 203.046 166.798 203.499 166.798 204.057ZM180.737 208.403C180.737 208.961 180.284 209.414 179.726 209.414C179.168 209.414 178.715 208.961 178.715 208.403C178.715 207.845 179.168 207.392 179.726 207.392C180.284 207.392 180.737 207.845 180.737 208.403ZM170.367 151.946C177.969 151.946 184.151 158.131 184.151 165.734C184.151 171.695 180.382 176.258 176.154 180.509C175.547 179.899 174.933 179.292 174.322 178.691C174.05 178.425 173.787 178.159 173.518 177.893C177.021 174.148 179.946 170.208 179.946 165.734C179.946 160.452 175.649 156.155 170.367 156.155C165.085 156.155 160.787 160.455 160.787 165.734C160.787 170.208 163.709 174.151 167.215 177.893C166.946 178.159 166.683 178.422 166.411 178.691C165.8 179.295 165.186 179.899 164.579 180.509C160.351 176.255 156.582 171.692 156.582 165.734C156.582 158.131 162.767 151.95 170.367 151.946ZM170.367 180.467C169.523 179.62 168.683 178.766 167.865 177.906C168.735 177.04 169.575 176.18 170.367 175.316C171.158 176.18 171.995 177.043 172.868 177.906C172.051 178.77 171.21 179.62 170.367 180.467ZM170.682 174.965C173.314 172.037 175.274 169.072 175.274 165.734C175.274 163.029 173.075 160.829 170.37 160.826C167.665 160.826 165.465 163.029 165.465 165.734C165.465 169.072 167.425 172.037 170.058 174.965C169.267 175.828 168.426 176.695 167.55 177.565C164.116 173.891 161.26 170.041 161.26 165.734C161.26 160.708 165.347 156.621 170.373 156.621C175.399 156.621 179.486 160.708 179.486 165.734C179.486 170.041 176.63 173.891 173.196 177.565C172.32 176.695 171.483 175.828 170.688 174.965H170.682ZM170.367 174.617C167.816 171.774 165.928 168.905 165.928 165.734C165.928 163.285 167.918 161.296 170.367 161.296C172.815 161.296 174.805 163.288 174.805 165.734C174.805 168.905 172.917 171.771 170.367 174.617ZM166.838 182.738C166.194 182.111 165.547 181.478 164.907 180.841C165.515 180.23 166.129 179.626 166.739 179.022C167.008 178.756 167.271 178.497 167.534 178.235C168.351 179.098 169.195 179.951 170.038 180.798C169.185 181.655 168.328 182.515 167.497 183.385C167.277 183.168 167.061 182.955 166.838 182.738ZM170.367 186.3C169.566 185.44 168.715 184.58 167.836 183.717C168.656 182.86 169.503 182 170.367 181.13C171.233 182 172.077 182.86 172.898 183.717C172.018 184.58 171.168 185.443 170.367 186.3ZM173.896 182.738C173.672 182.955 173.456 183.168 173.236 183.385C172.405 182.515 171.548 181.655 170.695 180.798C171.539 179.951 172.382 179.098 173.2 178.235C173.465 178.497 173.728 178.76 173.994 179.022C174.605 179.626 175.218 180.23 175.826 180.841C175.186 181.478 174.539 182.108 173.896 182.738Z" fill="#231F20" stroke="black" stroke-width="0.6"/>
<path d="M343.209 196.552V195.607C343.209 189.708 339.424 185.125 335.199 180.841C339.375 176.633 343.337 171.84 343.337 165.734C343.337 157.875 336.945 151.48 329.087 151.48C321.228 151.48 314.836 157.875 314.836 165.734C314.836 171.84 318.802 176.633 322.974 180.841C318.749 185.128 314.964 189.708 314.964 195.607V196.552C314.265 196.667 313.72 197.252 313.72 197.984C313.72 198.798 314.383 199.461 315.197 199.461C316.011 199.461 316.674 198.798 316.674 197.984C316.674 197.252 316.13 196.67 315.43 196.552V195.607C315.43 189.888 319.146 185.388 323.299 181.173C323.946 181.819 324.592 182.45 325.229 183.07C325.453 183.29 325.672 183.503 325.896 183.723C322.423 187.4 319.491 191.244 319.491 195.518V206.975C318.792 207.09 318.247 207.674 318.247 208.403C318.247 209.217 318.91 209.88 319.724 209.88C320.538 209.88 321.201 209.217 321.201 208.403C321.201 207.671 320.656 207.09 319.957 206.975V195.518C319.957 191.385 322.744 187.732 326.227 184.052C327.114 184.921 327.964 185.785 328.765 186.645C326.188 189.475 324.267 192.331 324.267 195.525V202.625C323.568 202.74 323.023 203.325 323.023 204.057C323.023 204.871 323.686 205.534 324.501 205.534C325.315 205.534 325.978 204.871 325.978 204.057C325.978 203.325 325.433 202.744 324.734 202.625V195.525C324.734 192.495 326.582 189.734 329.08 186.99C331.575 189.734 333.426 192.495 333.426 195.525V202.625C332.727 202.74 332.182 203.325 332.182 204.057C332.182 204.871 332.845 205.534 333.659 205.534C334.474 205.534 335.137 204.871 335.137 204.057C335.137 203.325 334.592 202.744 333.892 202.625V195.525C333.892 192.331 331.972 189.471 329.395 186.645C330.196 185.782 331.046 184.918 331.933 184.052C335.416 187.732 338.203 191.382 338.203 195.518V206.975C337.504 207.09 336.959 207.674 336.959 208.403C336.959 209.217 337.622 209.88 338.436 209.88C339.25 209.88 339.913 209.217 339.913 208.403C339.913 207.671 339.368 207.09 338.669 206.975V195.518C338.669 191.244 335.737 187.403 332.264 183.723C332.487 183.507 332.704 183.29 332.931 183.07C333.567 182.45 334.214 181.816 334.861 181.173C339.014 185.391 342.73 189.888 342.73 195.607V196.552C342.03 196.667 341.485 197.252 341.485 197.984C341.485 198.798 342.149 199.461 342.963 199.461C343.777 199.461 344.44 198.798 344.44 197.984C344.44 197.252 343.895 196.67 343.196 196.552H343.209ZM316.208 197.984C316.208 198.542 315.755 198.995 315.197 198.995C314.639 198.995 314.186 198.542 314.186 197.984C314.186 197.425 314.639 196.972 315.197 196.972C315.755 196.972 316.208 197.425 316.208 197.984ZM325.518 204.057C325.518 204.615 325.065 205.068 324.507 205.068C323.949 205.068 323.496 204.615 323.496 204.057C323.496 203.499 323.949 203.046 324.507 203.046C325.065 203.046 325.518 203.499 325.518 204.057ZM339.457 208.403C339.457 208.961 339.004 209.414 338.446 209.414C337.888 209.414 337.435 208.961 337.435 208.403C337.435 207.845 337.888 207.392 338.446 207.392C339.004 207.392 339.457 207.845 339.457 208.403ZM329.087 151.946C336.689 151.946 342.871 158.131 342.871 165.734C342.871 171.695 339.102 176.258 334.874 180.509C334.267 179.899 333.653 179.292 333.042 178.691C332.77 178.425 332.507 178.159 332.238 177.893C335.741 174.148 338.666 170.208 338.666 165.734C338.666 160.452 334.368 156.155 329.087 156.155C323.805 156.155 319.507 160.455 319.507 165.734C319.507 170.208 322.429 174.151 325.935 177.893C325.666 178.159 325.403 178.422 325.131 178.691C324.52 179.295 323.906 179.899 323.299 180.509C319.071 176.255 315.302 171.692 315.302 165.734C315.302 158.131 321.487 151.95 329.087 151.946ZM329.087 180.467C328.243 179.62 327.402 178.766 326.585 177.906C327.455 177.04 328.295 176.18 329.087 175.316C329.878 176.18 330.715 177.043 331.588 177.906C330.771 178.77 329.93 179.62 329.087 180.467ZM329.402 174.965C332.034 172.037 333.994 169.072 333.994 165.734C333.994 163.029 331.795 160.829 329.09 160.826C326.385 160.826 324.185 163.029 324.185 165.734C324.185 169.072 326.145 172.037 328.778 174.965C327.987 175.828 327.146 176.695 326.27 177.565C322.836 173.891 319.98 170.041 319.98 165.734C319.98 160.708 324.067 156.621 329.093 156.621C334.119 156.621 338.206 160.708 338.206 165.734C338.206 170.041 335.35 173.891 331.916 177.565C331.04 176.695 330.203 175.828 329.408 174.965H329.402ZM329.087 174.617C326.536 171.774 324.648 168.905 324.648 165.734C324.648 163.285 326.638 161.296 329.087 161.296C331.535 161.296 333.525 163.288 333.525 165.734C333.525 168.905 331.637 171.771 329.087 174.617ZM325.558 182.738C324.914 182.111 324.267 181.478 323.627 180.841C324.235 180.23 324.848 179.626 325.459 179.022C325.728 178.756 325.991 178.497 326.254 178.235C327.071 179.098 327.915 179.951 328.758 180.798C327.905 181.655 327.048 182.515 326.217 183.385C325.997 183.168 325.781 182.955 325.558 182.738ZM329.087 186.3C328.286 185.44 327.435 184.58 326.556 183.717C327.376 182.86 328.223 182 329.087 181.13C329.953 182 330.797 182.86 331.618 183.717C330.738 184.58 329.888 185.443 329.087 186.3ZM332.615 182.738C332.392 182.955 332.176 183.168 331.956 183.385C331.125 182.515 330.268 181.655 329.415 180.798C330.258 179.951 331.102 179.098 331.92 178.235C332.185 178.497 332.448 178.76 332.714 179.022C333.325 179.626 333.938 180.23 334.546 180.841C333.906 181.478 333.259 182.108 332.615 182.738Z" fill="#231F20" stroke="black" stroke-width="0.6"/>
<defs>
<linearGradient id="paint0_linear_165_202" x1="51" y1="469" x2="61" y2="483" gradientUnits="userSpaceOnUse">
<stop stop-color="#F9CE43"/>
<stop offset="0.23" stop-color="#FFF5A8"/>
<stop offset="0.47" stop-color="#FEDE58"/>
<stop offset="0.7" stop-color="#FFD64A"/>
<stop offset="0.89" stop-color="#F7E89B"/>
<stop offset="1" stop-color="#F9CE43"/>
</linearGradient>
<linearGradient id="paint1_linear_165_202" x1="99" y1="469" x2="109" y2="483" gradientUnits="userSpaceOnUse">
<stop stop-color="#F9CE43"/>
<stop offset="0.23" stop-color="#FFF5A8"/>
<stop offset="0.47" stop-color="#FEDE58"/>
<stop offset="0.7" stop-color="#FFD64A"/>
<stop offset="0.89" stop-color="#F7E89B"/>
<stop offset="1" stop-color="#F9CE43"/>
</linearGradient>
<linearGradient id="paint2_linear_165_202" x1="147" y1="469" x2="157" y2="483" gradientUnits="userSpaceOnUse">
<stop stop-color="#F9CE43"/>
<stop offset="0.23" stop-color="#FFF5A8"/>
<stop offset="0.47" stop-color="#FEDE58"/>
<stop offset="0.7" stop-color="#FFD64A"/>
<stop offset="0.89" stop-color="#F7E89B"/>
<stop offset="1" stop-color="#F9CE43"/>
</linearGradient>
<linearGradient id="paint3_linear_165_202" x1="195" y1="469" x2="205" y2="483" gradientUnits="userSpaceOnUse">
<stop stop-color="#F9CE43"/>
<stop offset="0.23" stop-color="#FFF5A8"/>
<stop offset="0.47" stop-color="#FEDE58"/>
<stop offset="0.7" stop-color="#FFD64A"/>
<stop offset="0.89" stop-color="#F7E89B"/>
<stop offset="1" stop-color="#F9CE43"/>
</linearGradient>
<linearGradient id="paint4_linear_165_202" x1="243" y1="469" x2="253" y2="483" gradientUnits="userSpaceOnUse">
<stop stop-color="#F9CE43"/>
<stop offset="0.23" stop-color="#FFF5A8"/>
<stop offset="0.47" stop-color="#FEDE58"/>
<stop offset="0.7" stop-color="#FFD64A"/>
<stop offset="0.89" stop-color="#F7E89B"/>
<stop offset="1" stop-color="#F9CE43"/>
</linearGradient>
<linearGradient id="paint5_linear_165_202" x1="291" y1="469" x2="301" y2="483" gradientUnits="userSpaceOnUse">
<stop stop-color="#F9CE43"/>
<stop offset="0.23" stop-color="#FFF5A8"/>
<stop offset="0.47" stop-color="#FEDE58"/>
<stop offset="0.7" stop-color="#FFD64A"/>
<stop offset="0.89" stop-color="#F7E89B"/>
<stop offset="1" stop-color="#F9CE43"/>
</linearGradient>
<linearGradient id="paint6_linear_165_202" x1="339" y1="469" x2="349" y2="483" gradientUnits="userSpaceOnUse">
<stop stop-color="#F9CE43"/>
<stop offset="0.23" stop-color="#FFF5A8"/>
<stop offset="0.47" stop-color="#FEDE58"/>
<stop offset="0.7" stop-color="#FFD64A"/>
<stop offset="0.89" stop-color="#F7E89B"/>
<stop offset="1" stop-color="#F9CE43"/>
</linearGradient>
<linearGradient id="paint7_linear_165_202" x1="387" y1="469" x2="397" y2="483" gradientUnits="userSpaceOnUse">
<stop stop-color="#F9CE43"/>
<stop offset="0.23" stop-color="#FFF5A8"/>
<stop offset="0.47" stop-color="#FEDE58"/>
<stop offset="0.7" stop-color="#FFD64A"/>
<stop offset="0.89" stop-color="#F7E89B"/>
<stop offset="1" stop-color="#F9CE43"/>
</linearGradient>
<linearGradient id="paint8_linear_165_202" x1="435" y1="469" x2="445" y2="483" gradientUnits="userSpaceOnUse">
<stop stop-color="#F9CE43"/>
<stop offset="0.23" stop-color="#FFF5A8"/>
<stop offset="0.47" stop-color="#FEDE58"/>
<stop offset="0.7" stop-color="#FFD64A"/>
<stop offset="0.89" stop-color="#F7E89B"/>
<stop offset="1" stop-color="#F9CE43"/>
</linearGradient>
</defs>
</svg>
