<svg width="228" height="93" viewBox="0 0 228 93" fill="none" xmlns="http://www.w3.org/2000/svg">
<path d="M47.0765 71.4253V69.9481C47.0765 60.7307 41.1624 53.5702 34.561 46.8765C41.0855 40.3007 47.2766 32.8119 47.2766 23.2714C47.2766 10.9919 37.2898 1 25.0103 1C12.7307 1 2.74396 10.9919 2.74396 23.2714C2.74396 32.8119 8.94016 40.3007 15.4595 46.8765C8.85809 53.5753 2.94401 60.7307 2.94401 69.9481V71.4253C1.85146 71.6048 1 72.5178 1 73.6617C1 74.9337 2.03612 75.9699 3.30819 75.9699C4.58025 75.9699 5.61637 74.9337 5.61637 73.6617C5.61637 72.5178 4.76491 71.6099 3.67237 71.4253V69.9481C3.67237 61.0128 9.47873 53.9806 15.9673 47.3945C16.9778 48.405 17.9882 49.3898 18.9833 50.3593C19.3321 50.7029 19.6758 51.0363 20.0246 51.38C14.5978 57.1248 10.0173 63.1312 10.0173 69.8096V87.7108C8.92477 87.8904 8.07331 88.8034 8.07331 89.9421C8.07331 91.2141 9.10942 92.2503 10.3815 92.2503C11.6536 92.2503 12.6897 91.2141 12.6897 89.9421C12.6897 88.7982 11.8382 87.8904 10.7457 87.7108V69.8096C10.7457 63.3518 15.1005 57.6429 20.5426 51.8929C21.9276 53.2522 23.256 54.6012 24.5076 55.9451C20.4811 60.3665 17.4804 64.829 17.4804 69.8198V80.9145C16.3879 81.094 15.5364 82.007 15.5364 83.1509C15.5364 84.423 16.5726 85.4591 17.8446 85.4591C19.1167 85.4591 20.1528 84.423 20.1528 83.1509C20.1528 82.007 19.3013 81.0992 18.2088 80.9145V69.8198C18.2088 65.0855 21.0966 60.7717 25 56.4837C28.8983 60.7717 31.7912 65.0855 31.7912 69.8198V80.9145C30.6987 81.094 29.8472 82.007 29.8472 83.1509C29.8472 84.423 30.8833 85.4591 32.1554 85.4591C33.4274 85.4591 34.4636 84.423 34.4636 83.1509C34.4636 82.007 33.6121 81.0992 32.5196 80.9145V69.8198C32.5196 64.829 29.5189 60.3614 25.4924 55.9451C26.744 54.5961 28.0725 53.2471 29.4574 51.8929C34.8996 57.6429 39.2543 63.3466 39.2543 69.8096V87.7108C38.1618 87.8904 37.3103 88.8034 37.3103 89.9421C37.3103 91.2141 38.3464 92.2503 39.6185 92.2503C40.8906 92.2503 41.9267 91.2141 41.9267 89.9421C41.9267 88.7982 41.0752 87.8904 39.9827 87.7108V69.8096C39.9827 63.1312 35.4022 57.1299 29.9754 51.38C30.3242 51.0415 30.6628 50.7029 31.0167 50.3593C32.0118 49.3898 33.0222 48.3999 34.0327 47.3945C40.5213 53.9857 46.3276 61.0128 46.3276 69.9481V71.4253C45.2351 71.6048 44.3836 72.5178 44.3836 73.6617C44.3836 74.9337 45.4197 75.9699 46.6918 75.9699C47.9639 75.9699 49 74.9337 49 73.6617C49 72.5178 48.1485 71.6099 47.056 71.4253H47.0765ZM4.88801 73.6617C4.88801 74.5337 4.18017 75.2415 3.30819 75.2415C2.4362 75.2415 1.72836 74.5337 1.72836 73.6617C1.72836 72.7897 2.4362 72.0819 3.30819 72.0819C4.18017 72.0819 4.88801 72.7897 4.88801 73.6617ZM19.4347 83.1509C19.4347 84.0229 18.7269 84.7307 17.8549 84.7307C16.9829 84.7307 16.2751 84.0229 16.2751 83.1509C16.2751 82.2789 16.9829 81.5711 17.8549 81.5711C18.7269 81.5711 19.4347 82.2789 19.4347 83.1509ZM41.2137 89.9421C41.2137 90.8141 40.5059 91.5219 39.6339 91.5219C38.7619 91.5219 38.0541 90.8141 38.0541 89.9421C38.0541 89.0701 38.7619 88.3623 39.6339 88.3623C40.5059 88.3623 41.2137 89.0701 41.2137 89.9421ZM25.0103 1.72836C36.8897 1.72836 46.5482 11.392 46.5482 23.2714C46.5482 32.5862 40.6598 39.716 34.0532 46.3584C33.1043 45.4044 32.1451 44.4554 31.1911 43.5168C30.7653 43.1013 30.355 42.6858 29.9344 42.2704C35.4074 36.4178 39.9776 30.2627 39.9776 23.2714C39.9776 15.0184 33.2633 8.30413 25.0103 8.30413C16.7572 8.30413 10.043 15.0235 10.043 23.2714C10.043 30.2627 14.608 36.423 20.0861 42.2704C19.6655 42.6858 19.2552 43.0962 18.8295 43.5168C17.8754 44.4606 16.9162 45.4044 15.9673 46.3584C9.36076 39.7108 3.47233 32.5811 3.47233 23.2714C3.47233 11.392 13.1359 1.73349 25.0103 1.72836ZM25.0103 46.2917C23.692 44.9684 22.3789 43.6348 21.1017 42.2909C22.461 40.9367 23.7741 39.5929 25.0103 38.2439C26.2464 39.5929 27.5544 40.9419 28.9188 42.2909C27.6416 43.6399 26.3285 44.9684 25.0103 46.2917ZM25.5027 37.695C29.6164 33.1197 32.6786 28.4879 32.6786 23.2714C32.6786 19.0449 29.2419 15.6082 25.0154 15.6031C20.7888 15.6031 17.3522 19.0449 17.3522 23.2714C17.3522 28.4879 20.4144 33.1197 24.5281 37.695C23.2919 39.044 21.9788 40.3982 20.6093 41.7574C15.2441 36.0177 10.7816 30.0011 10.7816 23.2714C10.7816 15.4185 17.1676 9.03249 25.0205 9.03249C32.8735 9.03249 39.2595 15.4185 39.2595 23.2714C39.2595 30.0011 34.797 36.0177 29.4317 41.7574C28.0622 40.3982 26.7542 39.044 25.5129 37.695H25.5027ZM25.0103 37.1513C21.0248 32.7093 18.0754 28.2263 18.0754 23.2714C18.0754 19.445 21.1838 16.3366 25.0103 16.3366C28.8367 16.3366 31.9451 19.4501 31.9451 23.2714C31.9451 28.2263 28.9957 32.7042 25.0103 37.1513ZM19.4963 49.8412C18.4909 48.8615 17.4804 47.8715 16.4802 46.8765C17.4292 45.9224 18.3883 44.9786 19.3424 44.0348C19.763 43.6194 20.1733 43.2141 20.5837 42.8038C21.8609 44.1528 23.1791 45.4864 24.4973 46.8098C23.1637 48.1485 21.825 49.4924 20.5273 50.8517C20.1836 50.5131 19.8451 50.1797 19.4963 49.8412ZM25.0103 55.4065C23.7587 54.0626 22.4302 52.7187 21.0556 51.3697C22.3379 50.031 23.6613 48.6871 25.0103 47.3278C26.3644 48.6871 27.6826 50.031 28.965 51.3697C27.5903 52.7187 26.2618 54.0677 25.0103 55.4065ZM30.5243 49.8412C30.1755 50.1797 29.8369 50.5131 29.4933 50.8517C28.1956 49.4924 26.8568 48.1485 25.5232 46.8098C26.8414 45.4864 28.1596 44.1528 29.4368 42.8038C29.8523 43.2141 30.2627 43.6245 30.6781 44.0348C31.6322 44.9786 32.5914 45.9224 33.5403 46.8765C32.5401 47.8715 31.5296 48.8564 30.5243 49.8412Z" fill="#231F20" stroke="black" stroke-width="0.6"/>
<path d="M90.5359 50.8H77.2159L74.5359 58H72.5759L82.8959 30.56H84.8959L95.1759 58H93.2159L90.5359 50.8ZM89.9759 49.28L83.8959 32.92L77.7759 49.28H89.9759ZM119.774 58H117.974L101.494 32.88V58H99.6941V29.96H101.494L117.974 55V29.96H119.774V58ZM128.014 29.92V47.48C128.014 50.6533 128.734 52.9867 130.174 54.48C131.614 55.9467 133.574 56.68 136.054 56.68C138.507 56.68 140.44 55.9467 141.854 54.48C143.267 53.0133 143.974 50.68 143.974 47.48V29.92H145.774V47.44C145.774 51.0933 144.894 53.8133 143.134 55.6C141.374 57.3867 139.014 58.28 136.054 58.28C133.094 58.28 130.707 57.3867 128.894 55.6C127.107 53.7867 126.214 51.0667 126.214 47.44V29.92H128.014ZM173.355 29.92L162.635 58H160.635L149.955 29.92H151.915L161.635 55.88L171.435 29.92H173.355ZM193.622 50.8H180.302L177.622 58H175.662L185.982 30.56H187.982L198.262 58H196.302L193.622 50.8ZM193.062 49.28L186.982 32.92L180.862 49.28H193.062ZM210.66 29.92C215.407 29.92 219.06 31.16 221.62 33.64C224.207 36.12 225.5 39.5733 225.5 44C225.5 48.4267 224.207 51.8667 221.62 54.32C219.06 56.7733 215.407 58 210.66 58H202.78V29.92H210.66ZM210.66 56.48C214.9 56.48 218.127 55.3867 220.34 53.2C222.553 50.9867 223.66 47.92 223.66 44C223.66 40.0533 222.553 36.9733 220.34 34.76C218.127 32.5467 214.9 31.44 210.66 31.44H204.58V56.48H210.66Z" fill="black"/>
<path d="M78.1615 69.913V79H77.2515V74.749H72.3245V79H71.4145V69.913H72.3245V73.995H77.2515V69.913H78.1615ZM86.3868 71.902V79H85.4768V77.752C85.2688 78.194 84.9481 78.532 84.5148 78.766C84.0814 79 83.5961 79.117 83.0588 79.117C82.2094 79.117 81.5161 78.857 80.9788 78.337C80.4414 77.8083 80.1728 77.0457 80.1728 76.049V71.902H81.0698V75.945C81.0698 76.7163 81.2604 77.3057 81.6418 77.713C82.0318 78.1203 82.5604 78.324 83.2278 78.324C83.9124 78.324 84.4584 78.1073 84.8658 77.674C85.2731 77.2407 85.4768 76.6037 85.4768 75.763V71.902H86.3868ZM96.9143 71.772C97.7463 71.772 98.4223 72.0363 98.9423 72.565C99.471 73.085 99.7353 73.8433 99.7353 74.84V79H98.8383V74.944C98.8383 74.1727 98.652 73.5833 98.2793 73.176C97.9067 72.7687 97.3997 72.565 96.7583 72.565C96.091 72.565 95.558 72.786 95.1593 73.228C94.7607 73.67 94.5613 74.3113 94.5613 75.152V79H93.6643V74.944C93.6643 74.1727 93.478 73.5833 93.1053 73.176C92.7326 72.7687 92.2213 72.565 91.5713 72.565C90.904 72.565 90.371 72.786 89.9723 73.228C89.5736 73.67 89.3743 74.3113 89.3743 75.152V79H88.4643V71.902H89.3743V73.124C89.5996 72.682 89.9203 72.3483 90.3363 72.123C90.7523 71.889 91.216 71.772 91.7273 71.772C92.3426 71.772 92.88 71.9193 93.3393 72.214C93.8073 72.5087 94.1453 72.942 94.3533 73.514C94.544 72.9507 94.869 72.5217 95.3283 72.227C95.7963 71.9237 96.325 71.772 96.9143 71.772ZM101.34 75.438C101.34 74.71 101.483 74.073 101.769 73.527C102.064 72.9723 102.467 72.5477 102.978 72.253C103.498 71.9497 104.083 71.798 104.733 71.798C105.409 71.798 105.99 71.954 106.475 72.266C106.969 72.578 107.325 72.9767 107.541 73.462V71.902H108.451V79H107.541V77.427C107.316 77.9123 106.956 78.3153 106.462 78.636C105.977 78.948 105.396 79.104 104.72 79.104C104.079 79.104 103.498 78.9523 102.978 78.649C102.467 78.3457 102.064 77.9167 101.769 77.362C101.483 76.8073 101.34 76.166 101.34 75.438ZM107.541 75.451C107.541 74.879 107.424 74.3763 107.19 73.943C106.956 73.5097 106.636 73.176 106.228 72.942C105.83 72.708 105.388 72.591 104.902 72.591C104.4 72.591 103.949 72.7037 103.55 72.929C103.152 73.1543 102.835 73.4837 102.601 73.917C102.376 74.3417 102.263 74.8487 102.263 75.438C102.263 76.0187 102.376 76.53 102.601 76.972C102.835 77.4053 103.152 77.739 103.55 77.973C103.949 78.1983 104.4 78.311 104.902 78.311C105.388 78.311 105.83 78.194 106.228 77.96C106.636 77.726 106.956 77.3923 107.19 76.959C107.424 76.5257 107.541 76.023 107.541 75.451ZM113.857 71.772C114.706 71.772 115.399 72.0363 115.937 72.565C116.474 73.085 116.743 73.8433 116.743 74.84V79H115.846V74.944C115.846 74.1727 115.651 73.5833 115.261 73.176C114.879 72.7687 114.355 72.565 113.688 72.565C113.003 72.565 112.457 72.7817 112.05 73.215C111.642 73.6483 111.439 74.2853 111.439 75.126V79H110.529V71.902H111.439V73.111C111.664 72.6777 111.989 72.3483 112.414 72.123C112.838 71.889 113.319 71.772 113.857 71.772ZM119.21 70.563C119.028 70.563 118.872 70.498 118.742 70.368C118.612 70.238 118.547 70.0777 118.547 69.887C118.547 69.6963 118.612 69.5403 118.742 69.419C118.872 69.289 119.028 69.224 119.21 69.224C119.392 69.224 119.548 69.289 119.678 69.419C119.808 69.5403 119.873 69.6963 119.873 69.887C119.873 70.0777 119.808 70.238 119.678 70.368C119.548 70.498 119.392 70.563 119.21 70.563ZM119.665 71.902V79H118.755V71.902H119.665ZM124.17 79.104C123.355 79.104 122.688 78.9177 122.168 78.545C121.657 78.1637 121.371 77.648 121.31 76.998H122.246C122.289 77.3967 122.476 77.7217 122.805 77.973C123.143 78.2157 123.594 78.337 124.157 78.337C124.651 78.337 125.037 78.22 125.314 77.986C125.6 77.752 125.743 77.4617 125.743 77.115C125.743 76.8723 125.665 76.673 125.509 76.517C125.353 76.361 125.154 76.2397 124.911 76.153C124.677 76.0577 124.356 75.958 123.949 75.854C123.42 75.7153 122.991 75.5767 122.662 75.438C122.333 75.2993 122.051 75.0957 121.817 74.827C121.592 74.5497 121.479 74.1813 121.479 73.722C121.479 73.3753 121.583 73.0547 121.791 72.76C121.999 72.4653 122.294 72.2313 122.675 72.058C123.056 71.8847 123.49 71.798 123.975 71.798C124.738 71.798 125.353 71.993 125.821 72.383C126.289 72.7643 126.54 73.293 126.575 73.969H125.665C125.639 73.553 125.474 73.2193 125.171 72.968C124.876 72.708 124.469 72.578 123.949 72.578C123.49 72.578 123.117 72.6863 122.831 72.903C122.545 73.1197 122.402 73.3883 122.402 73.709C122.402 73.9863 122.484 74.216 122.649 74.398C122.822 74.5713 123.035 74.71 123.286 74.814C123.537 74.9093 123.875 75.0177 124.3 75.139C124.811 75.2777 125.219 75.412 125.522 75.542C125.825 75.672 126.085 75.8627 126.302 76.114C126.519 76.3653 126.631 76.699 126.64 77.115C126.64 77.4963 126.536 77.8387 126.328 78.142C126.12 78.4367 125.83 78.6707 125.457 78.844C125.084 79.0173 124.655 79.104 124.17 79.104ZM128.808 70.563C128.626 70.563 128.47 70.498 128.34 70.368C128.21 70.238 128.145 70.0777 128.145 69.887C128.145 69.6963 128.21 69.5403 128.34 69.419C128.47 69.289 128.626 69.224 128.808 69.224C128.99 69.224 129.146 69.289 129.276 69.419C129.406 69.5403 129.471 69.6963 129.471 69.887C129.471 70.0777 129.406 70.238 129.276 70.368C129.146 70.498 128.99 70.563 128.808 70.563ZM129.263 71.902V79H128.353V71.902H129.263ZM134.652 71.772C135.501 71.772 136.194 72.0363 136.732 72.565C137.269 73.085 137.538 73.8433 137.538 74.84V79H136.641V74.944C136.641 74.1727 136.446 73.5833 136.056 73.176C135.674 72.7687 135.15 72.565 134.483 72.565C133.798 72.565 133.252 72.7817 132.845 73.215C132.437 73.6483 132.234 74.2853 132.234 75.126V79H131.324V71.902H132.234V73.111C132.459 72.6777 132.784 72.3483 133.209 72.123C133.633 71.889 134.114 71.772 134.652 71.772ZM142.527 71.798C143.195 71.798 143.775 71.954 144.269 72.266C144.763 72.578 145.119 72.9723 145.335 73.449V71.902H146.245V79.182C146.245 79.832 146.102 80.4083 145.816 80.911C145.539 81.4137 145.149 81.7993 144.646 82.068C144.144 82.3453 143.572 82.484 142.93 82.484C142.02 82.484 141.262 82.2673 140.655 81.834C140.057 81.4007 139.685 80.8113 139.537 80.066H140.434C140.59 80.56 140.885 80.9543 141.318 81.249C141.76 81.5437 142.298 81.691 142.93 81.691C143.39 81.691 143.801 81.5913 144.165 81.392C144.529 81.2013 144.815 80.9153 145.023 80.534C145.231 80.1527 145.335 79.702 145.335 79.182V77.427C145.11 77.9123 144.75 78.3153 144.256 78.636C143.771 78.948 143.195 79.104 142.527 79.104C141.877 79.104 141.292 78.9523 140.772 78.649C140.261 78.3457 139.858 77.9167 139.563 77.362C139.277 76.8073 139.134 76.166 139.134 75.438C139.134 74.71 139.277 74.073 139.563 73.527C139.858 72.9723 140.261 72.5477 140.772 72.253C141.292 71.9497 141.877 71.798 142.527 71.798ZM145.335 75.451C145.335 74.879 145.218 74.3763 144.984 73.943C144.75 73.5097 144.43 73.176 144.022 72.942C143.624 72.708 143.182 72.591 142.696 72.591C142.194 72.591 141.743 72.7037 141.344 72.929C140.946 73.1543 140.629 73.4837 140.395 73.917C140.17 74.3417 140.057 74.8487 140.057 75.438C140.057 76.0187 140.17 76.53 140.395 76.972C140.629 77.4053 140.946 77.739 141.344 77.973C141.743 78.1983 142.194 78.311 142.696 78.311C143.182 78.311 143.624 78.194 144.022 77.96C144.43 77.726 144.75 77.3923 144.984 76.959C145.218 76.5257 145.335 76.023 145.335 75.451ZM157.207 69.913V70.667H154.685V79H153.775V70.667H151.24V69.913H157.207ZM165.066 75.087C165.066 75.399 165.057 75.6373 165.04 75.802H159.151C159.177 76.3393 159.307 76.7987 159.541 77.18C159.775 77.5613 160.083 77.8517 160.464 78.051C160.845 78.2417 161.261 78.337 161.712 78.337C162.301 78.337 162.795 78.194 163.194 77.908C163.601 77.622 163.87 77.2363 164 76.751H164.962C164.789 77.4443 164.416 78.012 163.844 78.454C163.281 78.8873 162.57 79.104 161.712 79.104C161.045 79.104 160.447 78.9567 159.918 78.662C159.389 78.3587 158.973 77.934 158.67 77.388C158.375 76.8333 158.228 76.1877 158.228 75.451C158.228 74.7143 158.375 74.0687 158.67 73.514C158.965 72.9593 159.376 72.5347 159.905 72.24C160.434 71.9453 161.036 71.798 161.712 71.798C162.388 71.798 162.977 71.9453 163.48 72.24C163.991 72.5347 164.381 72.9333 164.65 73.436C164.927 73.93 165.066 74.4803 165.066 75.087ZM164.143 75.061C164.152 74.5323 164.043 74.0817 163.818 73.709C163.601 73.3363 163.302 73.0547 162.921 72.864C162.54 72.6733 162.124 72.578 161.673 72.578C160.997 72.578 160.421 72.7947 159.944 73.228C159.467 73.6613 159.203 74.2723 159.151 75.061H164.143ZM166.315 75.451C166.315 74.7143 166.462 74.073 166.757 73.527C167.052 72.9723 167.459 72.5477 167.979 72.253C168.499 71.9497 169.093 71.798 169.76 71.798C170.635 71.798 171.355 72.0147 171.918 72.448C172.49 72.8813 172.858 73.4707 173.023 74.216H172.048C171.927 73.7047 171.662 73.306 171.255 73.02C170.856 72.7253 170.358 72.578 169.76 72.578C169.283 72.578 168.854 72.6863 168.473 72.903C168.092 73.1197 167.788 73.4447 167.563 73.878C167.346 74.3027 167.238 74.827 167.238 75.451C167.238 76.075 167.346 76.6037 167.563 77.037C167.788 77.4703 168.092 77.7953 168.473 78.012C168.854 78.2287 169.283 78.337 169.76 78.337C170.358 78.337 170.856 78.194 171.255 77.908C171.662 77.6133 171.927 77.206 172.048 76.686H173.023C172.858 77.414 172.49 77.999 171.918 78.441C171.346 78.883 170.627 79.104 169.76 79.104C169.093 79.104 168.499 78.9567 167.979 78.662C167.459 78.3587 167.052 77.934 166.757 77.388C166.462 76.8333 166.315 76.1877 166.315 75.451ZM178.084 71.772C178.621 71.772 179.102 71.8847 179.527 72.11C179.96 72.3353 180.298 72.682 180.541 73.15C180.792 73.6093 180.918 74.1727 180.918 74.84V79H180.021V74.944C180.021 74.1727 179.826 73.5833 179.436 73.176C179.054 72.7687 178.53 72.565 177.863 72.565C177.178 72.565 176.632 72.7817 176.225 73.215C175.817 73.6483 175.614 74.2853 175.614 75.126V79H174.704V69.38H175.614V73.111C175.839 72.6863 176.168 72.357 176.602 72.123C177.044 71.889 177.538 71.772 178.084 71.772ZM186.258 71.772C187.107 71.772 187.801 72.0363 188.338 72.565C188.875 73.085 189.144 73.8433 189.144 74.84V79H188.247V74.944C188.247 74.1727 188.052 73.5833 187.662 73.176C187.281 72.7687 186.756 72.565 186.089 72.565C185.404 72.565 184.858 72.7817 184.451 73.215C184.044 73.6483 183.84 74.2853 183.84 75.126V79H182.93V71.902H183.84V73.111C184.065 72.6777 184.39 72.3483 184.815 72.123C185.24 71.889 185.721 71.772 186.258 71.772ZM194.264 79.104C193.596 79.104 192.994 78.9567 192.457 78.662C191.928 78.3587 191.508 77.934 191.196 77.388C190.892 76.8333 190.741 76.1877 190.741 75.451C190.741 74.7143 190.897 74.073 191.209 73.527C191.521 72.9723 191.945 72.5477 192.483 72.253C193.02 71.9497 193.622 71.798 194.29 71.798C194.957 71.798 195.559 71.9497 196.097 72.253C196.643 72.5477 197.067 72.9723 197.371 73.527C197.683 74.073 197.839 74.7143 197.839 75.451C197.839 76.179 197.683 76.8203 197.371 77.375C197.059 77.9297 196.63 78.3587 196.084 78.662C195.538 78.9567 194.931 79.104 194.264 79.104ZM194.264 78.311C194.732 78.311 195.165 78.207 195.564 77.999C195.962 77.7823 196.283 77.4617 196.526 77.037C196.777 76.6037 196.903 76.075 196.903 75.451C196.903 74.827 196.781 74.3027 196.539 73.878C196.296 73.4447 195.975 73.124 195.577 72.916C195.178 72.6993 194.745 72.591 194.277 72.591C193.809 72.591 193.375 72.6993 192.977 72.916C192.578 73.124 192.257 73.4447 192.015 73.878C191.781 74.3027 191.664 74.827 191.664 75.451C191.664 76.075 191.781 76.6037 192.015 77.037C192.257 77.4617 192.574 77.7823 192.964 77.999C193.362 78.207 193.796 78.311 194.264 78.311ZM200.408 69.38V79H199.498V69.38H200.408ZM205.575 79.104C204.908 79.104 204.306 78.9567 203.768 78.662C203.24 78.3587 202.819 77.934 202.507 77.388C202.204 76.8333 202.052 76.1877 202.052 75.451C202.052 74.7143 202.208 74.073 202.52 73.527C202.832 72.9723 203.257 72.5477 203.794 72.253C204.332 71.9497 204.934 71.798 205.601 71.798C206.269 71.798 206.871 71.9497 207.408 72.253C207.954 72.5477 208.379 72.9723 208.682 73.527C208.994 74.073 209.15 74.7143 209.15 75.451C209.15 76.179 208.994 76.8203 208.682 77.375C208.37 77.9297 207.941 78.3587 207.395 78.662C206.849 78.9567 206.243 79.104 205.575 79.104ZM205.575 78.311C206.043 78.311 206.477 78.207 206.875 77.999C207.274 77.7823 207.595 77.4617 207.837 77.037C208.089 76.6037 208.214 76.075 208.214 75.451C208.214 74.827 208.093 74.3027 207.85 73.878C207.608 73.4447 207.287 73.124 206.888 72.916C206.49 72.6993 206.056 72.591 205.588 72.591C205.12 72.591 204.687 72.6993 204.288 72.916C203.89 73.124 203.569 73.4447 203.326 73.878C203.092 74.3027 202.975 74.827 202.975 75.451C202.975 76.075 203.092 76.6037 203.326 77.037C203.569 77.4617 203.885 77.7823 204.275 77.999C204.674 78.207 205.107 78.311 205.575 78.311ZM213.786 71.798C214.453 71.798 215.034 71.954 215.528 72.266C216.022 72.578 216.377 72.9723 216.594 73.449V71.902H217.504V79.182C217.504 79.832 217.361 80.4083 217.075 80.911C216.798 81.4137 216.408 81.7993 215.905 82.068C215.402 82.3453 214.83 82.484 214.189 82.484C213.279 82.484 212.521 82.2673 211.914 81.834C211.316 81.4007 210.943 80.8113 210.796 80.066H211.693C211.849 80.56 212.144 80.9543 212.577 81.249C213.019 81.5437 213.556 81.691 214.189 81.691C214.648 81.691 215.06 81.5913 215.424 81.392C215.788 81.2013 216.074 80.9153 216.282 80.534C216.49 80.1527 216.594 79.702 216.594 79.182V77.427C216.369 77.9123 216.009 78.3153 215.515 78.636C215.03 78.948 214.453 79.104 213.786 79.104C213.136 79.104 212.551 78.9523 212.031 78.649C211.52 78.3457 211.117 77.9167 210.822 77.362C210.536 76.8073 210.393 76.166 210.393 75.438C210.393 74.71 210.536 74.073 210.822 73.527C211.117 72.9723 211.52 72.5477 212.031 72.253C212.551 71.9497 213.136 71.798 213.786 71.798ZM216.594 75.451C216.594 74.879 216.477 74.3763 216.243 73.943C216.009 73.5097 215.688 73.176 215.281 72.942C214.882 72.708 214.44 72.591 213.955 72.591C213.452 72.591 213.002 72.7037 212.603 72.929C212.204 73.1543 211.888 73.4837 211.654 73.917C211.429 74.3417 211.316 74.8487 211.316 75.438C211.316 76.0187 211.429 76.53 211.654 76.972C211.888 77.4053 212.204 77.739 212.603 77.973C213.002 78.1983 213.452 78.311 213.955 78.311C214.44 78.311 214.882 78.194 215.281 77.96C215.688 77.726 216.009 77.3923 216.243 76.959C216.477 76.5257 216.594 76.023 216.594 75.451ZM225.432 71.902L221.22 82.341H220.271L221.649 78.961L218.737 71.902H219.738L222.156 77.96L224.496 71.902H225.432Z" fill="black"/>
</svg>
