<svg width="36" height="67" viewBox="0 0 36 67" fill="none" xmlns="http://www.w3.org/2000/svg">
<path d="M33.7962 51.3905V50.3335C33.7962 43.7384 29.5645 38.6149 24.8411 33.8254C29.5095 29.1203 33.9393 23.762 33.9393 16.9356C33.9393 8.14936 26.7936 1 18.0074 1C9.22116 1 2.07547 8.14936 2.07547 16.9356C2.07547 23.762 6.50896 29.1203 11.1737 33.8254C6.45024 38.6186 2.21861 43.7384 2.21861 50.3335V51.3905C1.43687 51.519 0.827637 52.1723 0.827637 52.9907C0.827637 53.9009 1.569 54.6422 2.47918 54.6422C3.38937 54.6422 4.13073 53.9009 4.13073 52.9907C4.13073 52.1723 3.5215 51.5226 2.73976 51.3905V50.3335C2.73976 43.9402 6.89432 38.9085 11.537 34.1961C12.26 34.9191 12.983 35.6238 13.695 36.3174C13.9446 36.5633 14.1905 36.8019 14.4401 37.0478C10.5571 41.1583 7.27968 45.456 7.27968 50.2344V63.0431C6.49795 63.1715 5.88871 63.8248 5.88871 64.6396C5.88871 65.5498 6.63007 66.2911 7.54026 66.2911C8.45044 66.2911 9.1918 65.5498 9.1918 64.6396C9.1918 63.8212 8.58257 63.1715 7.80083 63.0431V50.2344C7.80083 45.6138 10.9168 41.529 14.8107 37.4148C15.8017 38.3873 16.7522 39.3526 17.6477 40.3141C14.7667 43.4778 12.6197 46.6708 12.6197 50.2418V58.1802C11.8379 58.3087 11.2287 58.9619 11.2287 59.7804C11.2287 60.6906 11.9701 61.4319 12.8803 61.4319C13.7904 61.4319 14.5318 60.6906 14.5318 59.7804C14.5318 58.9619 13.9226 58.3123 13.1408 58.1802V50.2418C13.1408 46.8543 15.2071 43.7677 18 40.6995C20.7893 43.7677 22.8593 46.8543 22.8593 50.2418V58.1802C22.0775 58.3087 21.4683 58.9619 21.4683 59.7804C21.4683 60.6906 22.2097 61.4319 23.1198 61.4319C24.03 61.4319 24.7714 60.6906 24.7714 59.7804C24.7714 58.9619 24.1622 58.3123 23.3804 58.1802V50.2418C23.3804 46.6708 21.2334 43.4741 18.3524 40.3141C19.2479 39.3489 20.1984 38.3837 21.1894 37.4148C25.0834 41.529 28.1993 45.6101 28.1993 50.2344V63.0431C27.4175 63.1715 26.8083 63.8248 26.8083 64.6396C26.8083 65.5498 27.5497 66.2911 28.4598 66.2911C29.37 66.2911 30.1114 65.5498 30.1114 64.6396C30.1114 63.8212 29.5022 63.1715 28.7204 63.0431V50.2344C28.7204 45.456 25.443 41.1619 21.5601 37.0478C21.8096 36.8055 22.0518 36.5633 22.3051 36.3174C23.0171 35.6238 23.7401 34.9154 24.4631 34.1961C29.1058 38.9122 33.2603 43.9402 33.2603 50.3335V51.3905C32.4786 51.519 31.8694 52.1723 31.8694 52.9907C31.8694 53.9009 32.6107 54.6422 33.5209 54.6422C34.4311 54.6422 35.1725 53.9009 35.1725 52.9907C35.1725 52.1723 34.5632 51.5226 33.7815 51.3905H33.7962ZM3.60958 52.9907C3.60958 53.6146 3.1031 54.1211 2.47918 54.1211C1.85527 54.1211 1.34879 53.6146 1.34879 52.9907C1.34879 52.3668 1.85527 51.8603 2.47918 51.8603C3.1031 51.8603 3.60958 52.3668 3.60958 52.9907ZM14.018 59.7804C14.018 60.4043 13.5115 60.9108 12.8876 60.9108C12.2637 60.9108 11.7572 60.4043 11.7572 59.7804C11.7572 59.1565 12.2637 58.65 12.8876 58.65C13.5115 58.65 14.018 59.1565 14.018 59.7804ZM29.6012 64.6396C29.6012 65.2635 29.0948 65.77 28.4709 65.77C27.8469 65.77 27.3405 65.2635 27.3405 64.6396C27.3405 64.0157 27.8469 63.5092 28.4709 63.5092C29.0948 63.5092 29.6012 64.0157 29.6012 64.6396ZM18.0074 1.52116C26.5074 1.52116 33.4182 8.43563 33.4182 16.9356C33.4182 23.6005 29.2049 28.7019 24.4778 33.4547C23.7988 32.7721 23.1125 32.0931 22.4299 31.4215C22.1252 31.1242 21.8316 30.8269 21.5307 30.5297C25.4467 26.3421 28.7168 21.9379 28.7168 16.9356C28.7168 11.0304 23.9126 6.22623 18.0074 6.22623C12.1022 6.22623 7.29803 11.0341 7.29803 16.9356C7.29803 21.9379 10.5644 26.3457 14.4841 30.5297C14.1831 30.8269 13.8895 31.1205 13.5849 31.4215C12.9023 32.0968 12.216 32.7721 11.537 33.4547C6.80991 28.6983 2.59663 23.5968 2.59663 16.9356C2.59663 8.43563 9.5111 1.52483 18.0074 1.52116ZM18.0074 33.407C17.0642 32.4601 16.1246 31.5059 15.2108 30.5443C16.1833 29.5754 17.1229 28.6139 18.0074 27.6486C18.8919 28.6139 19.8278 29.5791 20.804 30.5443C19.8902 31.5096 18.9506 32.4601 18.0074 33.407ZM18.3597 27.2559C21.3031 23.9822 23.4942 20.6681 23.4942 16.9356C23.4942 13.9114 21.0352 11.4525 18.0111 11.4488C14.9869 11.4488 12.5279 13.9114 12.5279 16.9356C12.5279 20.6681 14.719 23.9822 17.6624 27.2559C16.7779 28.2212 15.8384 29.1901 14.8584 30.1626C11.0195 26.0558 7.82653 21.7508 7.82653 16.9356C7.82653 11.3167 12.3958 6.74738 18.0147 6.74738C23.6337 6.74738 28.2029 11.3167 28.2029 16.9356C28.2029 21.7508 25.0099 26.0558 21.171 30.1626C20.1911 29.1901 19.2552 28.2212 18.3671 27.2559H18.3597ZM18.0074 26.8669C15.1557 23.6886 13.0454 20.4809 13.0454 16.9356C13.0454 14.1977 15.2695 11.9736 18.0074 11.9736C20.7453 11.9736 22.9694 14.2014 22.9694 16.9356C22.9694 20.4809 20.8591 23.6849 18.0074 26.8669ZM14.062 35.9467C13.3427 35.2457 12.6197 34.5374 11.904 33.8254C12.583 33.1428 13.2693 32.4675 13.9519 31.7922C14.2529 31.4949 14.5465 31.205 14.8401 30.9113C15.7539 31.8766 16.6972 32.8308 17.6404 33.7777C16.6862 34.7356 15.7283 35.6972 14.7997 36.6697C14.5538 36.4275 14.3116 36.189 14.062 35.9467ZM18.0074 39.9288C17.1119 38.9672 16.1613 38.0057 15.1777 37.0404C16.0953 36.0825 17.0422 35.121 18.0074 34.1484C18.9763 35.121 19.9195 36.0825 20.837 37.0404C19.8535 38.0057 18.9029 38.9709 18.0074 39.9288ZM21.9527 35.9467C21.7032 36.189 21.461 36.4275 21.2151 36.6697C20.2865 35.6972 19.3286 34.7356 18.3744 33.7777C19.3176 32.8308 20.2608 31.8766 21.1747 30.9113C21.472 31.205 21.7656 31.4986 22.0629 31.7922C22.7455 32.4675 23.4318 33.1428 24.1108 33.8254C23.3951 34.5374 22.6721 35.2421 21.9527 35.9467Z" fill="#231F20" stroke="black" stroke-width="0.6"/>
</svg>
