<svg width="65" height="64" viewBox="0 0 65 64" fill="none" xmlns="http://www.w3.org/2000/svg">
<path d="M31.9999 0.000420156C20.0247 0.000420156 9.16312 6.82233 3.65034 16.5745L1.57508 5.44963C1.51146 5.03781 1.14149 4.74372 0.725207 4.77497C0.501996 4.79896 0.299426 4.91503 0.166057 5.09583C0.0332459 5.27663 -0.018097 5.50487 0.0254339 5.72473L2.42554 18.5248C2.50199 18.9484 2.89931 19.2352 3.32509 19.1749L17.7249 16.7748C17.9481 16.7581 18.154 16.6487 18.2924 16.4735C18.4314 16.2977 18.4905 16.0723 18.4553 15.8513C18.4202 15.6303 18.2941 15.4344 18.1082 15.3105C17.9219 15.1867 17.6925 15.1465 17.4749 15.1995L5.1252 17.2498C10.3784 8.07917 20.6936 1.59998 31.9991 1.59998C48.7974 1.59998 62.3987 15.2008 62.3987 31.9995C62.3953 32.2138 62.4785 32.4203 62.6286 32.5726C62.7793 32.725 62.9846 32.8109 63.1983 32.8109C63.4126 32.8109 63.618 32.725 63.7681 32.5726C63.9188 32.4203 64.0013 32.2138 63.9986 31.9995C63.9986 14.3369 49.6616 0 31.999 0L31.9999 0.000420156ZM0.700377 31.1757C0.288554 31.227 -0.0155686 31.5853 0.000616873 32.0005C0.000616873 49.6631 14.3376 64 32.0002 64C43.9777 64 54.8384 57.1575 60.3498 47.4002L62.425 58.5251C62.4239 58.7622 62.5277 58.9877 62.7096 59.1406C62.891 59.2935 63.1309 59.3582 63.3647 59.3164C63.5985 59.2751 63.8017 59.1322 63.9194 58.9263C64.0372 58.7198 64.0572 58.4726 63.9747 58.25L61.5745 45.4499C61.4981 45.0269 61.1008 44.7395 60.675 44.8003L46.2752 47.1999C46.052 47.2166 45.8461 47.326 45.7077 47.5017C45.5687 47.677 45.5096 47.9024 45.5448 48.1234C45.5799 48.3444 45.706 48.5402 45.8918 48.6641C46.0782 48.788 46.3076 48.8282 46.5252 48.7752L58.8749 46.7249C53.6232 55.9011 43.3094 62.4004 32.001 62.4004C15.2026 62.4004 1.60141 48.7996 1.60141 32.0008C1.6109 31.7659 1.51603 31.5388 1.34249 31.3798C1.1695 31.2207 0.934564 31.1465 0.70131 31.1761L0.700377 31.1757Z" fill="black"/>
</svg>
